<svg xmlns="http://www.w3.org/2000/svg" version="1.1" xmlns:xlink="http://www.w3.org/1999/xlink" xmlns:svgjs="http://svgjs.com/svgjs" width="3840" height="2160" preserveAspectRatio="none" viewBox="0 0 3840 2160"><g mask="url(&quot;#SvgjsMask1036&quot;)" fill="none"><rect width="3840" height="2160" x="0" y="0" fill="#0e2a47"></rect><path d="M-48.35 2066a160.46 160.46 0 1 0 320.24 20.85z" fill="rgba(133, 83, 37, 1)"></path><path d="M3146.92 539.26 a37.5 37.5 0 1 0 75 0 a37.5 37.5 0 1 0 -75 0z" stroke="rgba(120, 120, 56, 1)"></path><path d="M2872.84 587.82L3058.82 587.82L3058.82 773.8L2872.84 773.8z" stroke="rgba(120, 120, 56, 1)"></path><path d="M2688.43 2076.28L2894.21 2076.28L2894.21 2214.46L2688.43 2214.46z" fill="rgba(3, 124, 166, 1)"></path><path d="M1568.32 1471.49L1761.88 1471.49L1761.88 1513.28L1568.32 1513.28z" fill="rgba(3, 124, 166, 1)"></path><path d="M1355.71 1011.01L1559.66 1011.01L1559.66 1169.41L1355.71 1169.41z" stroke="rgba(120, 120, 56, 1)"></path><path d="M1475.29 1821.1L1543.21 1821.1L1543.21 2036.15L1475.29 2036.15z" stroke="rgba(3, 124, 166, 1)"></path><path d="M3425.47 113.99L3583.92 113.99L3583.92 215.2L3425.47 215.2z" fill="rgba(133, 83, 37, 1)"></path><path d="M1400.08 1109.85 a167.94 167.94 0 1 0 335.88 0 a167.94 167.94 0 1 0 -335.88 0z" stroke="rgba(133, 83, 37, 1)"></path><path d="M237.36 1661.23 a171.03 171.03 0 1 0 342.06 0 a171.03 171.03 0 1 0 -342.06 0z" stroke="rgba(120, 120, 56, 1)"></path><path d="M603.69 702.54L719.4 702.54L719.4 818.25L603.69 818.25z" stroke="rgba(120, 120, 56, 1)"></path><path d="M2193.04 760.53L2201.78 760.53L2201.78 791.1L2193.04 791.1z" stroke="rgba(3, 124, 166, 1)"></path><path d="M3344.49 1414.05L3547.14 1414.05L3547.14 1581.59L3344.49 1581.59z" fill="rgba(120, 120, 56, 1)"></path><path d="M2678.17 1586.73 a156.36 156.36 0 1 0 312.72 0 a156.36 156.36 0 1 0 -312.72 0z" stroke="rgba(120, 120, 56, 1)"></path><path d="M3515.34 480.73L3715.46 480.73L3715.46 612.89L3515.34 612.89z" fill="rgba(120, 120, 56, 1)"></path><path d="M3694.05 259.52L3748.34 259.52L3748.34 423.33L3694.05 423.33z" fill="rgba(3, 124, 166, 1)"></path><path d="M3203.63 691.22L3415.3 691.22L3415.3 902.89L3203.63 902.89z" fill="rgba(3, 124, 166, 1)"></path><path d="M2763.64 2077.96a71.92 71.92 0 1 0-141.02-28.32z" fill="rgba(3, 124, 166, 1)"></path><path d="M1075.42 1177.61L1260.24 1177.61L1260.24 1272.17L1075.42 1272.17z" stroke="rgba(3, 124, 166, 1)"></path><path d="M1044.56 2150.91 a20.32 20.32 0 1 0 40.64 0 a20.32 20.32 0 1 0 -40.64 0z" stroke="rgba(3, 124, 166, 1)"></path><path d="M1809.64 1820.54L1972.66 1820.54L1972.66 1983.56L1809.64 1983.56z" fill="rgba(3, 124, 166, 1)"></path><path d="M757.85 148.78a26.2 26.2 0 1 0-28.92-43.69z" fill="rgba(133, 83, 37, 1)"></path><path d="M2063.53 1468.29 a67.47 67.47 0 1 0 134.94 0 a67.47 67.47 0 1 0 -134.94 0z" fill="rgba(120, 120, 56, 1)"></path></g><defs><mask id="SvgjsMask1036"><rect width="3840" height="2160" fill="#ffffff"></rect></mask></defs></svg>